<svg width="100" height="80" viewBox="0 0 100 80" fill="none" xmlns="http://www.w3.org/2000/svg">
<rect x="2.5" y="2.5" width="95" height="75" stroke="#2C0091" stroke-width="5"/>
<path d="M31.68 53.48C31.28 53.4267 30.4267 53.3333 29.12 53.2C27.84 53.0667 26.7733 53 25.92 53C25.0933 53 24.1867 53.0667 23.2 53.2C22.24 53.3333 21.6133 53.4267 21.32 53.48L21.56 51.64C22.7867 51.4 23.6133 51.0533 24.04 50.6C24.4667 50.12 24.68 49.32 24.68 48.2L24.72 31.4C24.72 30.5467 24.6133 29.9733 24.4 29.68C24.2133 29.3867 23.8267 29.24 23.24 29.24C22.9733 29.24 22.7067 29.2533 22.44 29.28C22.1733 29.3067 21.9867 29.32 21.88 29.32L21.8 29.16L22.08 27.4C22.3733 27.4267 22.9333 27.4533 23.76 27.48C24.5867 27.5067 25.4267 27.52 26.28 27.52C27.4267 27.52 28.6133 27.5067 29.84 27.48C31.0667 27.4267 31.9067 27.3867 32.36 27.36C34.92 27.36 37.2 27.8667 39.2 28.88C41.2 29.8667 42.7467 31.2667 43.84 33.08C44.96 34.8933 45.52 36.9733 45.52 39.32C45.52 41.9333 44.9067 44.32 43.68 46.48C42.4533 48.64 40.7867 50.3467 38.68 51.6C36.5733 52.8533 34.24 53.48 31.68 53.48ZM29.6 29.32C29.04 29.32 28.6667 29.3867 28.48 29.52C28.2933 29.6267 28.1867 29.8533 28.16 30.2C27.76 40.4667 27.56 46.32 27.56 47.76C27.56 48.7733 27.6933 49.5333 27.96 50.04C28.2533 50.5467 28.7467 50.9067 29.44 51.12C30.16 51.3333 31.2133 51.44 32.6 51.44C35.48 51.44 37.7467 50.4533 39.4 48.48C41.0533 46.48 41.88 43.7467 41.88 40.28C41.88 36.76 40.8133 34.0533 38.68 32.16C36.5733 30.2667 33.5467 29.32 29.6 29.32ZM55.325 32.2H55.125C54.965 33.96 54.685 37.2667 54.285 42.12C53.885 46.9467 53.685 49.5733 53.685 50C53.685 50.8267 54.0983 51.24 54.925 51.24L56.565 51.2L56.645 51.36L56.285 53.16C55.9917 53.1333 55.4583 53.0933 54.685 53.04C53.9383 53.0133 53.1783 53 52.405 53C51.7383 53 51.045 53.04 50.325 53.12C49.6317 53.2267 49.1783 53.2933 48.965 53.32L49.165 51.48C50.0183 51.3733 50.6317 51.1067 51.005 50.68C51.3783 50.2267 51.6183 49.4667 51.725 48.4C51.9917 45.8933 52.3383 42.52 52.765 38.28C53.2183 34.0133 53.445 31.6267 53.445 31.12C53.445 30.4267 53.165 29.9067 52.605 29.56C52.0717 29.2133 51.205 29 50.005 28.92L49.885 28.72L50.205 27.32C50.5517 27.3467 51.2317 27.3867 52.245 27.44C53.2583 27.4933 54.0317 27.52 54.565 27.52C55.045 27.52 55.565 27.5067 56.125 27.48C56.7117 27.4267 57.0983 27.3867 57.285 27.36C58.3517 30.8 59.3783 34 60.365 36.96C61.3783 39.8933 62.205 42.2267 62.845 43.96C63.485 45.6933 63.885 46.7733 64.045 47.2H64.245C64.6183 46.2133 65.4717 43.8667 66.805 40.16C68.1383 36.4533 69.5917 32.2133 71.165 27.44C71.165 27.4133 71.525 27.4267 72.245 27.48L73.805 27.52C74.3117 27.52 75.0717 27.4933 76.085 27.44C77.0983 27.36 77.7783 27.3067 78.125 27.28L78.205 27.44L78.005 28.92C76.8583 29.0533 76.045 29.2933 75.565 29.64C75.085 29.96 74.845 30.4533 74.845 31.12C74.845 31.7067 74.965 33.8933 75.205 37.68C75.445 41.44 75.6717 44.6933 75.885 47.44C76.0183 48.5333 76.1517 49.3467 76.285 49.88C76.4183 50.3867 76.605 50.7467 76.845 50.96C77.085 51.1467 77.4183 51.24 77.845 51.24C78.085 51.24 78.3117 51.2267 78.525 51.2C78.7383 51.1733 78.885 51.16 78.965 51.16L79.045 51.32L78.685 53.12C78.4183 53.0933 77.9117 53.0667 77.165 53.04C76.445 53.0133 75.685 53 74.885 53C74.165 53 73.3517 53.04 72.445 53.12C71.565 53.2267 70.9917 53.2933 70.725 53.32L70.885 51.48C71.7117 51.3733 72.3117 51.16 72.685 50.84C73.0583 50.52 73.245 50.0667 73.245 49.48C73.245 48.92 73.045 46.32 72.645 41.68C72.2717 37.04 72.0183 33.88 71.885 32.2H71.685L63.965 53.48L63.005 53.76L55.325 32.2Z" fill="#3700b3"/>
</svg>
